<?xml version="1.0" encoding="UTF-8"?>
<svg width="134px" height="176px" viewBox="0 0 134 176" version="1.1" xmlns="http://www.w3.org/2000/svg" xmlns:xlink="http://www.w3.org/1999/xlink">
    <!-- Generator: Sketch 50.2 (55047) - http://www.bohemiancoding.com/sketch -->
    <title>baseline-lock_open-24px</title>
    <desc>Created with Sketch.</desc>
    <defs></defs>
    <g id="Page-1" stroke="none" stroke-width="1" fill="none" fill-rule="evenodd">
        <g id="baseline-lock_open-24px" transform="translate(-33.000000, -8.000000)">
            <polygon id="Shape" points="0 0 200 0 200 200 0 200"></polygon>
            <path d="M100,141.666667 C109.166667,141.666667 116.666667,134.166667 116.666667,125 C116.666667,115.833333 109.166667,108.333333 100,108.333333 C90.8333333,108.333333 83.3333333,115.833333 83.3333333,125 C83.3333333,134.166667 90.8333333,141.666667 100,141.666667 Z M150,66.6666667 L141.666667,66.6666667 L141.666667,50 C141.666667,27 123,8.33333333 100,8.33333333 C77,8.33333333 58.3333333,27 58.3333333,50 L74.1666667,50 C74.1666667,35.75 85.75,24.1666667 100,24.1666667 C114.25,24.1666667 125.833333,35.75 125.833333,50 L125.833333,66.6666667 L50,66.6666667 C40.8333333,66.6666667 33.3333333,74.1666667 33.3333333,83.3333333 L33.3333333,166.666667 C33.3333333,175.833333 40.8333333,183.333333 50,183.333333 L150,183.333333 C159.166667,183.333333 166.666667,175.833333 166.666667,166.666667 L166.666667,83.3333333 C166.666667,74.1666667 159.166667,66.6666667 150,66.6666667 Z M150,166.666667 L50,166.666667 L50,83.3333333 L150,83.3333333 L150,166.666667 Z" id="Shape" fill="#000000" fill-rule="nonzero"></path>
        </g>
    </g>
</svg>